# xmcd
#
# Track frame offsets:
#	150
#	14319
#	26513
#	39337
#	50000
#	61533
#	73737
#	82933
#	98131
#	112517
#
# Disc length: 1729 seconds
#
# Revision: 0
# Processed by: cddbd v1.5.2PL0 Copyright (c) Steve Scherf et al.
# Submitted via: EZCDAudioConverter 7.1.4.1
#
DISCID=6b06bf0a
DTITLE=Just Started Rollin' - Louisiana Roll
DYEAR=2012
DGENRE=Blues
TTITLE0=Just Started Rollin' and Sven Zetterberg - When she comes to town
TTITLE1=Just Started Rollin' - New york city
TTITLE2=Just Started Rollin' - Took a trip down south
TTITLE3=Just Started Rollin' - Going down south
TTITLE4=Just Started Rollin' - She took the long way home
TTITLE5=Just Started Rollin' and Sven Zetterberg - Louisiana roll
TTITLE6=Just Started Rollin' - Head under water
TTITLE7=Just Started Rollin' - Poor and lonely
TTITLE8=Just Started Rollin' and Sven Zetterberg - Dust shuffle
TTITLE9=Just Started Rollin' - Don't come
EXTD=
EXTT0=
EXTT1=
EXTT2=
EXTT3=
EXTT4=
EXTT5=
EXTT6=
EXTT7=
EXTT8=
EXTT9=
PLAYORDER=
